<svg viewBox="0 0 200 200" xmlns="http://www.w3.org/2000/svg">
  <!-- 背景 -->
  <rect width="200" height="200" fill="#f5f5f5"/>
  
  <!-- 鉛筆 -->
  <g transform="translate(50, 40)">
    <rect x="0" y="0" width="20" height="80" fill="#ffd93d" rx="2"/>
    <polygon points="0,80 10,90 20,80" fill="#f8b500"/>
    <rect x="0" y="0" width="20" height="15" fill="#ff6b6b" rx="2"/>
    <rect x="0" y="15" width="20" height="8" fill="#4ecdc4"/>
    <rect x="8" y="70" width="4" height="10" fill="#333"/>
    <polygon points="8,80 10,90 12,80" fill="#333"/>
  </g>
  
  <!-- ノート -->
  <g transform="translate(90, 60)">
    <rect x="0" y="0" width="60" height="80" fill="#fff" stroke="#ddd" stroke-width="2" rx="3"/>
    <rect x="0" y="0" width="10" height="80" fill="#ff6b6b" rx="3"/>
    <circle cx="5" cy="10" r="2" fill="#fff"/>
    <circle cx="5" cy="20" r="2" fill="#fff"/>
    <circle cx="5" cy="30" r="2" fill="#fff"/>
    <circle cx="5" cy="40" r="2" fill="#fff"/>
    <circle cx="5" cy="50" r="2" fill="#fff"/>
    <circle cx="5" cy="60" r="2" fill="#fff"/>
    <circle cx="5" cy="70" r="2" fill="#fff"/>
  </g>
</svg>